<svg width="52" height="105" viewBox="0 0 52 105" fill="none" xmlns="http://www.w3.org/2000/svg">
<path d="M35.1636 30.4558V30.4555C35.1636 26.1253 38.6267 22.6296 42.9346 22.6296C47.2424 22.6296 50.7055 26.1253 50.7055 30.4555V79.2722C50.7055 93.0633 39.5188 104.25 25.7278 104.25C11.9367 104.25 0.75 93.0633 0.75 79.2722V69.267C0.75 64.9425 4.25139 61.4411 8.57592 61.4411C12.9004 61.4411 16.4018 64.9425 16.4018 69.267V79.2722C16.4018 84.4314 20.636 88.5982 25.7827 88.5982C30.9318 88.5982 35.1414 84.4291 35.1416 79.2726C35.1416 79.2725 35.1416 79.2724 35.1416 79.2722L35.1636 30.4558Z" stroke="white" stroke-width="1.5"/>
<path d="M50.7055 8.57592C50.7055 12.8981 47.2017 16.4018 42.8796 16.4018C38.5574 16.4018 35.0536 12.8981 35.0536 8.57592C35.0536 4.25378 38.5574 0.75 42.8796 0.75C47.2017 0.75 50.7055 4.25378 50.7055 8.57592Z" stroke="white" stroke-width="1.5"/>
<path opacity="0.8" d="M50.7055 30.4555C50.7055 34.7776 47.2017 38.2814 42.8796 38.2814C38.5574 38.2814 35.0536 34.7776 35.0536 30.4555C35.0536 26.1334 38.5574 22.6296 42.8796 22.6296C47.2017 22.6296 50.7055 26.1334 50.7055 30.4555Z" stroke="white" stroke-width="1.5"/>
<path opacity="0.8" d="M16.4018 69.1571C16.4018 73.4792 12.8981 76.983 8.57592 76.983C4.25378 76.983 0.75 73.4792 0.75 69.1571C0.75 64.835 4.25378 61.3312 8.57592 61.3312C12.8981 61.3312 16.4018 64.835 16.4018 69.1571Z" stroke="white" stroke-width="1.5"/>
</svg>
